<?xml version="1.0" encoding="utf-8"?>
<!-- Generator: Adobe Illustrator 23.0.3, SVG Export Plug-In . SVG Version: 6.00 Build 0)  -->
<svg version="1.1" xmlns="http://www.w3.org/2000/svg" xmlns:xlink="http://www.w3.org/1999/xlink" x="0px" y="0px"
	 viewBox="0 0 1468 426.1" style="enable-background:new 0 0 1468 426.1;" xml:space="preserve">
<style type="text/css">
	.st0{fill:#FF0000;}
	.st1{fill:none;stroke:#000000;stroke-miterlimit:10;}
</style>
<g id="Bottom">
	<g>
		<path d="M183.5,197.1c-1.1-7.3-3.1-14-6-20c-2.9-6-7-10.8-12.2-14.5c-5.3-3.7-12.4-5.5-21.2-5.5c-11,0-20.1,2.2-27.1,6.7
			c-7.1,4.4-12.4,11-15.9,19.7c-3.5,8.7-6,19.7-7.3,33.1c-1.3,13.3-2,29.1-2,47.3c0,19.3,0.7,35.9,2,49.6c1.3,13.7,3.7,25,7.3,33.9
			c3.5,8.9,8.5,15.4,14.9,19.4c6.4,4.1,14.7,6.1,24.8,6.1c15.4,0,26.7-5.8,33.8-17.4c7.1-11.6,10.6-30.2,10.6-55.7h87.4
			c0,41-10.5,72.2-31.4,93.7c-21,21.5-55.7,32.2-104.3,32.2c-23,0-42.9-2.4-59.9-7.2c-17-4.8-31.1-13.5-42.4-26.1
			c-11.3-12.6-19.8-29.4-25.5-50.5c-5.7-21.1-8.6-47.3-8.6-78.6c0-32.1,3.5-58.7,10.6-79.7c7.1-21.1,17-37.9,29.8-50.5
			c12.8-12.6,28-21.4,45.7-26.4c17.6-5,37.1-7.5,58.3-7.5c42.4,0,74.2,10.8,95.7,32.5c21.4,21.7,32.1,51,32.1,88.2h-87.4
			C185.2,212,184.6,204.5,183.5,197.1z"/>
		<path d="M369.2,195.4c0-18.2,3.3-33.3,9.9-45.5c6.6-12.2,15.6-22,26.8-29.6c11.3-7.5,24.5-12.9,39.7-16.2
			c15.2-3.3,31.4-4.9,48.7-4.9c27.4,0,49.4,2.3,66.2,7c16.8,4.6,29.8,11.2,39.1,19.7c9.3,8.5,15.6,18.7,18.9,30.4
			c3.3,11.8,5,24.6,5,38.6v164.1c0,14.7,0.8,26.1,2.3,34.2c1.5,8.1,4.5,16.8,8.9,26.1h-87.4c-3.1-5-5.4-10.3-7-15.9
			c-1.6-5.6-3-11.1-4.3-16.5h-1.3c-10.6,16.2-22.8,26.8-36.7,31.6c-13.9,4.8-31.9,7.2-54,7.2c-15.9,0-29.4-2.4-40.4-7.2
			c-11-4.8-19.9-11.5-26.5-20c-6.6-8.5-11.5-18.1-14.6-28.7c-3.1-10.6-4.6-21.2-4.6-31.6c0-14.7,1.8-27.3,5.3-38
			c3.5-10.6,8.9-19.7,16.2-27.3c7.3-7.5,16.6-13.8,27.8-18.8c11.3-5,24.8-9.5,40.7-13.3l51.6-12.2c13.7-3.1,23.2-7.3,28.5-12.8
			c5.3-5.4,7.9-13.3,7.9-23.8c0-12-3.2-21.4-9.6-28.1c-6.4-6.8-17.3-10.2-32.8-10.2c-14.1,0-24.7,3.7-31.8,11
			c-7.1,7.3-10.6,17.2-10.6,29.6v8.7h-82.1V195.4z M516.2,273.4c-7.1,2.5-13.5,4.4-19.2,5.5c-18.5,3.5-31.8,9.3-39.7,17.4
			c-7.9,8.1-11.9,19.1-11.9,33.1c0,12,2.6,22.2,7.9,30.7c5.3,8.5,14.1,12.8,26.5,12.8c6.2,0,12.6-0.9,19.2-2.6
			c6.6-1.7,12.7-4.5,18.2-8.4c5.5-3.9,10-8.9,13.6-15.1c3.5-6.2,5.3-13.5,5.3-22v-61.5C529.9,267.5,523.3,270.9,516.2,273.4z"/>
		<path d="M832.6,0.5v68.4h-91.4V0.5H832.6z M832.6,107.2v312h-91.4v-312H832.6z"/>
		<path d="M1057.7,17.9v89.3h53v54.5h-53v168.8c0,12.4,2.1,21.2,6.3,26.4c4.2,5.2,12.9,7.8,26.1,7.8c3.5,0,7.1-0.1,10.6-0.3
			c3.5-0.2,6.8-0.5,9.9-0.9v55.7c-10.2,0-20,0.3-29.5,0.9c-9.5,0.6-19.5,0.9-30.1,0.9c-17.7,0-32.1-1.1-43.4-3.2
			s-19.9-6.4-25.8-12.8c-6-6.4-10-14.8-12.2-25.2c-2.2-10.4-3.3-23.6-3.3-39.4V161.7H920v-54.5h46.3V17.9H1057.7z"/>
		<path d="M1176.9,145.5c2.2-26.3,8.2-49.6,17.9-69.9c9.7-20.3,24.4-36.5,44-48.7c19.6-12.2,46.9-18.3,81.8-18.3
			c28.7,0,52.4,3.6,71.2,10.7c18.8,7.2,33.8,18.7,45,34.5c11.3,15.9,19.2,36.4,23.8,61.8c4.6,25.3,7,56.2,7,92.5
			c0,28.6-1.1,56.1-3.3,82.4c-2.2,26.3-8.2,49.6-17.9,69.9c-9.7,20.3-24.4,36.2-44,47.8c-19.6,11.6-46.9,17.4-81.8,17.4
			c-28.2,0-51.9-3.3-70.8-9.9c-19-6.6-34.1-17.8-45.3-33.6c-11.3-15.8-19.2-36.4-23.8-61.8c-4.6-25.3-6.9-56.2-6.9-92.5
			C1173.6,199.2,1174.7,171.8,1176.9,145.5z M1271.2,309.3c1.5,16.4,4.3,29.4,8.3,38.9c4,9.5,9.3,15.9,15.9,19.4
			c6.6,3.5,15,5.2,25.2,5.2c10.6,0,19.2-2.2,25.8-6.7c6.6-4.4,11.8-12,15.6-22.6c3.7-10.6,6.4-24.8,7.9-42.6
			c1.5-17.8,2.3-39.8,2.3-66.1v-44.7c0-25.9-0.8-47.1-2.3-63.5c-1.6-16.4-4.3-29.4-8.3-38.9c-4-9.5-9.3-16-15.9-19.4
			c-6.6-3.5-15-5.2-25.2-5.2c-10.6,0-19.2,2.2-25.8,6.7c-6.6,4.4-11.8,12-15.6,22.6c-3.8,10.6-6.4,24.8-7.9,42.6
			c-1.6,17.8-2.3,39.8-2.3,66.1v44.7C1268.9,271.7,1269.7,292.9,1271.2,309.3z"/>
	</g>
</g>
<g id="Shadow">
	<g>
		<g>
			<path d="M185.2,299.8c0,25.5-3.5,44.1-10.6,55.7c-7.1,11.6-18.3,17.4-33.8,17.4c-8.4,0-15.6-1.4-21.4-4.2l-5-2.7l-4.4-4l-0.1,0.6
				l16.3,16.6c0.1,0.1,0.2,0.2,0.3,0.3l0.3,0.3l0,0c1.6,1.5,3.3,2.9,5.1,4.1c6.4,4.1,14.7,6.1,24.8,6.1c15.4,0,26.7-5.8,33.8-17.4
				c7.1-11.6,10.6-30.2,10.6-55.7h70.7c0.4-5.5,0.7-11.1,0.7-17H185.2z"/>
			<path d="M25.1,358.8c-5.7-21.1-8.6-47.3-8.6-78.6c0-32.1,3.5-58.7,10.6-79.7c7.1-21.1,17-37.9,29.8-50.5
				c12.8-12.6,28-21.4,45.7-26.4c17.6-5,37.1-7.5,58.3-7.5c38.2,0,67.9,8.8,89.1,26.5c-2.9-3.9-6-7.5-9.4-11
				c-21.4-21.6-53.3-32.5-95.7-32.5c-21.2,0-40.6,2.5-58.3,7.5c-17.7,5-32.9,13.8-45.7,26.4c-12.8,12.6-22.7,29.4-29.8,50.5
				C4,204.6,0.5,231.1,0.5,263.2c0,31.3,2.9,57.5,8.6,78.6c5.7,21.1,14.2,37.9,25.5,50.5c3.1,3.5,6.4,6.6,10,9.5
				C36.3,390.3,29.8,375.9,25.1,358.8z"/>
			<path d="M199.5,214.1c-1.1-7.3-3.1-14-6-20c-1.7-3.5-3.7-6.5-6.2-9.2l0,0l-15.6-17.2l-0.4,0.3l2.6,3.2l2.2,3.5l2.4,5.1
				c2.2,5.3,3.8,11.1,4.8,17.4c1.1,7.4,1.7,14.9,1.7,22.6h15.1C200.1,217.8,199.8,216,199.5,214.1z"/>
		</g>
		<g>
			<path d="M395.2,166.8c6.6-12.2,15.6-22,26.8-29.6c11.3-7.5,24.5-12.9,39.7-16.2c15.2-3.3,31.4-4.9,48.7-4.9
				c27.4,0,49.4,2.3,66.2,7c13.9,3.8,25.2,9,34,15.5c-3-4.6-6.6-8.9-10.9-12.8c-9.3-8.5-22.3-15.1-39.1-19.7
				c-16.8-4.6-38.8-7-66.2-7c-17.2,0-33.4,1.6-48.7,4.9c-15.2,3.3-28.5,8.7-39.7,16.2c-11.3,7.5-20.2,17.4-26.8,29.6
				c-6.6,12.2-9.9,27.4-9.9,45.5v7.5h16.3C386.5,188.9,389.7,176.8,395.2,166.8z"/>
			<path d="M542.9,181.3L542.9,181.3l-15.8-17.5l-0.3,0.4l1.7,2.2l2.6,3.8l2.2,4.8c1.8,4.9,2.7,10.5,2.7,16.9
				c0,10.4-2.6,18.4-7.9,23.8c-5.3,5.4-14.8,9.7-28.5,12.8L448,240.6c-15.9,3.9-29.5,8.3-40.7,13.3c-11.3,5-20.5,11.3-27.8,18.8
				c-7.3,7.5-12.7,16.6-16.2,27.3c-3.5,10.6-5.3,23.3-5.3,38c0,10.4,1.5,21,4.6,31.6c3.1,10.6,7.9,20.2,14.6,28.7
				c3.5,4.5,7.6,8.5,12.4,12c-4.8-7.2-8.5-15.1-11-23.7c-3.1-10.6-4.6-21.2-4.6-31.6c0-14.7,1.8-27.3,5.3-38
				c3.5-10.6,8.9-19.7,16.2-27.3c7.3-7.5,16.6-13.8,27.8-18.8c11.3-5,24.8-9.5,40.7-13.3l51.6-12.2c13.7-3.1,23.2-7.3,28.5-12.8
				c5.3-5.4,7.9-13.3,7.9-23.8C552.1,197.2,549,188,542.9,181.3z"/>
			<path d="M536.6,262.3l-0.5,1.3v25.3v0.8v35c0,8.5-1.8,15.9-5.3,22c-3.5,6.2-8.1,11.2-13.6,15.1c-5.5,3.9-11.6,6.7-18.2,8.4
				c-6.6,1.7-13,2.6-19.2,2.6c-5,0-9.5-0.7-13.3-2.1l-4.9-2.3l-4-3l-0.3,0.4l15.4,15.7c5.4,5.6,13.1,8.4,23.1,8.4
				c6.2,0,12.6-0.9,19.2-2.6c6.6-1.7,12.7-4.5,18.2-8.4c5.5-3.9,10-8.9,13.6-15.1c3.5-6.2,5.3-13.5,5.3-22v-61.5L536.6,262.3z"/>
			<path d="M556.1,419.2c-1.4-5.2-2.8-10.4-4-15.5l-15.6-17.5l-0.4,0.6l2,7.9l2.5,9.4l3.4,8.8c0,0,0,0-0.1,0.1
				c0.1,0.2,0.2,0.5,0.4,0.7l0.1,0.3l0,0c0.9,1.8,1.8,3.5,2.9,5.2H556.1z"/>
		</g>
		<g>
			<polygon points="757.3,17.5 832.6,17.5 832.6,0.5 741.3,0.5 741.3,68.9 757.3,68.9 			"/>
			<polygon points="757.3,124.2 832.6,124.2 832.6,107.2 741.3,107.2 741.3,419.2 757.3,419.2 			"/>
		</g>
		<g>
			<polygon points="1074.4,107.2 1073.7,107.2 1057.7,107.2 1057.5,107.4 1057.2,107.7 1073.7,124.2 1110.7,124.2 1110.7,107.2 			
				"/>
			<path d="M1100.7,364.4c-3.5,0.2-7.1,0.3-10.6,0.3c-4.9,0-9.2-0.4-12.9-1.1l-2.1-0.5l-4.7-1.6l-4-2.4l-1.4-1.2l-0.5,0.4l7.5,7.5
				l8.1,8.3l0,0c4.2,5.1,12.9,7.7,26,7.7c1.5,0,3,0,4.5-0.1v-18.1C1107.6,363.9,1104.3,364.2,1100.7,364.4z"/>
			<polygon points="936,124.2 982.4,124.2 982.4,34.9 1057.7,34.9 1057.7,17.9 966.4,17.9 966.4,107.2 920,107.2 920,161.7 
				936,161.7 			"/>
			<path d="M985.7,396.8c-2.2-10.4-3.3-23.6-3.3-39.4V178.7l-15.5-17.5l-0.5,0.5v9.6l0.5,7.4h-0.5v161.6c0,15.9,1.1,29,3.3,39.4
				c2.2,10.4,6.3,18.8,12.2,25.2c2.5,2.7,5.5,5,9,7C988.6,407.5,986.9,402.5,985.7,396.8z"/>
		</g>
		<g>
			<path d="M1220.3,399.1c-11.3-15.8-19.2-36.4-23.8-61.8c-4.6-25.3-6.9-56.2-6.9-92.5c0-28.6,1.1-56.1,3.3-82.4
				c2.2-26.3,8.2-49.6,17.9-69.9c9.7-20.3,24.4-36.5,44-48.7c19.6-12.2,46.9-18.3,81.8-18.3c28.7,0,52.4,3.6,71.2,10.7
				c10.5,4,19.8,9.4,28,16.1c-11.1-15.1-25.8-26.2-44-33.1c-18.8-7.2-42.5-10.7-71.2-10.7c-34.9,0-62.1,6.1-81.8,18.3
				c-19.6,12.2-34.3,28.4-44,48.7c-9.7,20.3-15.7,43.6-17.9,69.9c-2.2,26.3-3.3,53.7-3.3,82.4c0,36.3,2.3,67.2,6.9,92.5
				c4.6,25.3,12.6,45.9,23.8,61.8c4.8,6.8,10.4,12.7,16.6,17.8C1220.8,399.7,1220.5,399.4,1220.3,399.1z"/>
			<path d="M1385.9,143.6c-1.6-16.4-4.3-29.4-8.3-38.9c-2.3-5.5-5-9.9-8.2-13.4l0,0l-15.5-17.2l-0.4,0.3l2.7,3.3l2.2,3.4l2.2,4.2
				c0,0.1,0.1,0.2,0.1,0.3l2.3,6l0.2,0c3.2,9,5.4,20.7,6.8,35c1.5,16.4,2.3,37.6,2.3,63.5v44.7c0,26.3-0.8,48.3-2.3,66.1
				c-1.6,17.8-4.2,32-7.9,42.6c-3.8,10.6-8.9,18.2-15.6,22.6c-6.6,4.4-15.2,6.7-25.8,6.7c-5.8,0-11-0.6-15.6-1.7l-5.3-1.6
				c-0.4-0.1-0.7-0.3-1.1-0.4l-4.4-2.1l-3.4-2.5l-1.4-1.1l-1-0.2l7.9,8l8.2,8.4l0,0c2.1,2.1,4.4,3.9,6.8,5.2
				c6.6,3.5,15,5.2,25.2,5.2c10.6,0,19.2-2.2,25.8-6.7c6.6-4.4,11.8-12,15.6-22.6c3.7-10.6,6.4-24.8,7.9-42.6
				c1.5-17.8,2.3-39.8,2.3-66.1v-44.7C1388.2,181.2,1387.4,160.1,1385.9,143.6z"/>
		</g>
	</g>
	<path class="st0" d="M536.4,262.2"/>
</g>
<g id="Outline">
	<g>
		<path class="st1" d="M183.5,197.1c-1.1-7.3-3.1-14-6-20c-2.9-6-7-10.8-12.2-14.5c-5.3-3.7-12.4-5.5-21.2-5.5
			c-11,0-20.1,2.2-27.1,6.7c-7.1,4.4-12.4,11-15.9,19.7c-3.5,8.7-6,19.7-7.3,33.1c-1.3,13.3-2,29.1-2,47.3c0,19.3,0.7,35.9,2,49.6
			c1.3,13.7,3.7,25,7.3,33.9c3.5,8.9,8.5,15.4,14.9,19.4c6.4,4.1,14.7,6.1,24.8,6.1c15.4,0,26.7-5.8,33.8-17.4
			c7.1-11.6,10.6-30.2,10.6-55.7h87.4c0,41-10.5,72.2-31.4,93.7c-21,21.5-55.7,32.2-104.3,32.2c-23,0-42.9-2.4-59.9-7.2
			c-17-4.8-31.1-13.5-42.4-26.1c-11.3-12.6-19.8-29.4-25.5-50.5c-5.7-21.1-8.6-47.3-8.6-78.6c0-32.1,3.5-58.7,10.6-79.7
			c7.1-21.1,17-37.9,29.8-50.5c12.8-12.6,28-21.4,45.7-26.4c17.6-5,37.1-7.5,58.3-7.5c42.4,0,74.2,10.8,95.7,32.5
			c21.4,21.7,32.1,51,32.1,88.2h-87.4C185.2,212,184.6,204.5,183.5,197.1z"/>
		<path class="st1" d="M369.2,195.4c0-18.2,3.3-33.3,9.9-45.5c6.6-12.2,15.6-22,26.8-29.6c11.3-7.5,24.5-12.9,39.7-16.2
			c15.2-3.3,31.4-4.9,48.7-4.9c27.4,0,49.4,2.3,66.2,7c16.8,4.6,29.8,11.2,39.1,19.7c9.3,8.5,15.6,18.7,18.9,30.4
			c3.3,11.8,5,24.6,5,38.6v164.1c0,14.7,0.8,26.1,2.3,34.2c1.5,8.1,4.5,16.8,8.9,26.1h-87.4c-3.1-5-5.4-10.3-7-15.9
			c-1.6-5.6-3-11.1-4.3-16.5h-1.3c-10.6,16.2-22.8,26.8-36.7,31.6c-13.9,4.8-31.9,7.2-54,7.2c-15.9,0-29.4-2.4-40.4-7.2
			c-11-4.8-19.9-11.5-26.5-20c-6.6-8.5-11.5-18.1-14.6-28.7c-3.1-10.6-4.6-21.2-4.6-31.6c0-14.7,1.8-27.3,5.3-38
			c3.5-10.6,8.9-19.7,16.2-27.3c7.3-7.5,16.6-13.8,27.8-18.8c11.3-5,24.8-9.5,40.7-13.3l51.6-12.2c13.7-3.1,23.2-7.3,28.5-12.8
			c5.3-5.4,7.9-13.3,7.9-23.8c0-12-3.2-21.4-9.6-28.1c-6.4-6.8-17.3-10.2-32.8-10.2c-14.1,0-24.7,3.7-31.8,11
			c-7.1,7.3-10.6,17.2-10.6,29.6v8.7h-82.1V195.4z M516.2,273.4c-7.1,2.5-13.5,4.4-19.2,5.5c-18.5,3.5-31.8,9.3-39.7,17.4
			c-7.9,8.1-11.9,19.1-11.9,33.1c0,12,2.6,22.2,7.9,30.7c5.3,8.5,14.1,12.8,26.5,12.8c6.2,0,12.6-0.9,19.2-2.6
			c6.6-1.7,12.7-4.5,18.2-8.4c5.5-3.9,10-8.9,13.6-15.1c3.5-6.2,5.3-13.5,5.3-22v-61.5C529.9,267.5,523.3,270.9,516.2,273.4z"/>
		<path class="st1" d="M832.6,0.5v68.4h-91.4V0.5H832.6z M832.6,107.2v312h-91.4v-312H832.6z"/>
		<path class="st1" d="M1057.7,17.9v89.3h53v54.5h-53v168.8c0,12.4,2.1,21.2,6.3,26.4c4.2,5.2,12.9,7.8,26.1,7.8
			c3.5,0,7.1-0.1,10.6-0.3c3.5-0.2,6.8-0.5,9.9-0.9v55.7c-10.2,0-20,0.3-29.5,0.9c-9.5,0.6-19.5,0.9-30.1,0.9
			c-17.7,0-32.1-1.1-43.4-3.2s-19.9-6.4-25.8-12.8c-6-6.4-10-14.8-12.2-25.2c-2.2-10.4-3.3-23.6-3.3-39.4V161.7H920v-54.5h46.3V17.9
			H1057.7z"/>
		<path class="st1" d="M1176.9,145.5c2.2-26.3,8.2-49.6,17.9-69.9c9.7-20.3,24.4-36.5,44-48.7c19.6-12.2,46.9-18.3,81.8-18.3
			c28.7,0,52.4,3.6,71.2,10.7c18.8,7.2,33.8,18.7,45,34.5c11.3,15.9,19.2,36.4,23.8,61.8c4.6,25.3,7,56.2,7,92.5
			c0,28.6-1.1,56.1-3.3,82.4c-2.2,26.3-8.2,49.6-17.9,69.9c-9.7,20.3-24.4,36.2-44,47.8c-19.6,11.6-46.9,17.4-81.8,17.4
			c-28.2,0-51.9-3.3-70.8-9.9c-19-6.6-34.1-17.8-45.3-33.6c-11.3-15.8-19.2-36.4-23.8-61.8c-4.6-25.3-6.9-56.2-6.9-92.5
			C1173.6,199.2,1174.7,171.8,1176.9,145.5z M1271.2,309.3c1.5,16.4,4.3,29.4,8.3,38.9c4,9.5,9.3,15.9,15.9,19.4
			c6.6,3.5,15,5.2,25.2,5.2c10.6,0,19.2-2.2,25.8-6.7c6.6-4.4,11.8-12,15.6-22.6c3.7-10.6,6.4-24.8,7.9-42.6
			c1.5-17.8,2.3-39.8,2.3-66.1v-44.7c0-25.9-0.8-47.1-2.3-63.5c-1.6-16.4-4.3-29.4-8.3-38.9c-4-9.5-9.3-16-15.9-19.4
			c-6.6-3.5-15-5.2-25.2-5.2c-10.6,0-19.2,2.2-25.8,6.7c-6.6,4.4-11.8,12-15.6,22.6c-3.8,10.6-6.4,24.8-7.9,42.6
			c-1.6,17.8-2.3,39.8-2.3,66.1v44.7C1268.9,271.7,1269.7,292.9,1271.2,309.3z"/>
	</g>
</g>
</svg>
