<?xml version="1.0" encoding="utf-8"?>
<!-- Generator: Adobe Illustrator 23.0.3, SVG Export Plug-In . SVG Version: 6.00 Build 0)  -->
<svg version="1.1" id="Layer_1" focusable="false" xmlns="http://www.w3.org/2000/svg" xmlns:xlink="http://www.w3.org/1999/xlink"
	 x="0px" y="0px" viewBox="0 0 495 495" style="enable-background:new 0 0 495 495;" xml:space="preserve">
<g>
	<path d="M218.4,362.7c3.6-0.3,6.8-3.6,7.2-7.2l0.7-3.6c0-2.3,1-4.5,2.7-6.3c1.8-1.8,3.6-2.8,5.5-3.6l2.2-0.9c3-1.3,5.5-4,6.5-7.2
		l1-4.3c0.9-3.6,2.7-7.2,5.5-9.5l0.3-0.3c2.2-1.8,2.5-5.4,1.1-7.9l-0.5-1.3c-1.3-2.1-1.5-4.6-0.5-6.8c0.9-2.5,1.8-4.7,3.3-6.8
		l1.8-2.5c0.7-1.5,0.7-3.6-0.3-4.8c-1.1-1.5-1.7-3.2-1.8-5l-0.3-2.5V276c0.3-1.8,0-4.1-0.5-6l-0.7-2.2l-0.4-0.6l-0.9-0.9
		c-0.9-0.7-1.8-0.5-2.7,0.3c-1.3,2.2-2.3,4.5-2.9,6.8v0.3c-0.5,2.3-2.7,4-4.8,3.6h-2.2c-2.5,0-4.5,2.2-4.5,4.7c0,3.3-1.1,6.5-3,9
		l-1,1c-1.8,2.3-4.5,4-7.2,4.8l-1.5,0.3c-1.8,0.5-3.3,1.8-3.6,4c0,1.8-1.1,3.6-2.5,5l-1.8,1.5c-2.2,2.3-5.4,3.6-8.7,4l-9,0.9
		c-2.9,0-5.5,1.8-7.2,4.5c-1.8,2.7-4.5,4.5-7.2,4.8l-4,0.3c-2.9,0.3-6,0.3-9-0.3l-1.8-0.3l-4.8-1.3c-1.8-0.5-3.3,0-4.3,1.3l-1.8,2.3
		c-2.2,2.6-5.6,4-9,3.6l-11.7-1.5c-1.8,0-3.2-0.9-4.8-1.8c-1.8-1-3-2.3-4.3-3.6l-4.5-5.4c-0.5-0.3-1.5-0.5-2.3-0.3l-2.5,1l-10.1,2.5
		c-1.8,0.5-4.2,0-6-1c-1.8-1.5-4-1.8-6.1-1.8h-2.3c-2.2,0.5-3.6,2.8-2.9,5l0.7,3.6c0.5,1.8,0.3,4-0.5,5.8c-0.9,1.8-0.7,3.6,0.5,5.4
		l1,1.5c1.5,2.2,3.6,4,5.4,5.8c1.7,1.8,3.6,3.6,5,6l2.7,4.8c1.5,2.5,3.6,4,6.5,4c2.7,0,5.5,0.9,7.6,2.7l5.4,5c1.5,1.3,3.6,1.5,5,0.3
		l0.9-0.3c1,0,1.8,0.7,1.8,1.8v0.9c0,2.3,1.8,4.5,4.2,5.4l8.1,1.8c2.9,0.9,5.8,1.8,8.5,3.6h1.5c1.5,0,2.7-1.3,2.5-2.8v-6.3
		c0-1.8,0.7-3.6,2.2-4.3l0.9-0.3c0.9,0.3,1.8,1,1.5,1.8v3c0,2.3,0.7,4.5,2.3,6.1c1.8,1.8,4.2,2.2,6.1,1.5c2.2-0.9,4.3-1,6.7-0.9
		l6.7,0.3c3.3,0.3,6.3,0,9-1.3c3.3-1,6-2.5,8.5-4.5l1-0.7l5.5-4.8c1.8-1.8,4.2-2.7,6.3-2.7H218.4z"/>
	<path d="M93.6,246.8l1.8,1.5c0.5,0.7,1.5,1.5,2.2,1.8l0.7,0.7c1.3,1,2.2,2.5,2.5,4.1l1.8,8.1c0,2.2,1.8,4,3.6,4.5l2.9,0.9
		c0,0,0.5,0,0.9,0.3l3.6,1c2.9,0.9,5.4,2.5,7.6,4.7c2.2,1.8,4.3,4.1,6.1,6.6l0.7,0.7c1.5,1.8,3.6,2.7,5.8,2.2
		c2.2-0.5,4.5-0.7,6.8-0.7h2.7c1.8,0,4.2,0.5,6.1,1.8c1.8,1,4.2,1.8,6.3,2.7h0.5c2.2,0.9,4.5,0.5,6.3-0.7c1.8-1.5,4.2-2.2,6.5-2.2
		l8.5,0.5c1.8,0,3.6-0.3,4.5-1.8h0.3l3-2.8l0.9-0.9c1.5-1.8,3.6-2.5,5.8-2.7h8.1c2.2,0,4.2-1.8,5-3.6c0.9-1.8,2.7-3.3,4.8-3.6
		l3.6-0.7c1.5,0,2.7-1.3,3.3-2.8c0.5-1.8,1.5-3.3,2.7-4.3l2.9-2.8c1.8-1.8,2.7-3.6,3-5.8l-0.5,0.2v-0.5c0-1.8-1-2.8-2.5-2.8h-4.7
		c-1.8,0.3-3.6,0.3-5,0h-8.1c-4.2,0-8.1-0.7-12.1-1.8l-4.3-1l-3.6-1.1l-8.1-2.7c-4.2-1.2-7.7-4.1-9.5-8.1l-0.9-1.8
		c-1.1-2.6-3.9-4.1-6.7-3.6c-3,0-6.1,0-9-1.5l-2.2-0.9c-4.2-1.8-7.2-5.4-7.2-10.3l-0.7-4.8c-0.5-2.5-2.2-4.8-4.3-5.8
		c-2.5-1-4.8-2.5-7.2-4.1l-0.9-0.5c-2.9-2.2-5-5.1-6.3-8.5l-0.3-1.1c-1-2.9-1-6-0.3-9l0.3-1c0.7-2.3,0.9-4.7,0.9-7.2
		c0-2.2-1-4.4-2.5-6l-2.5-2.3c-2.9-2.3-4.7-5.8-4.8-9.5c-0.3-4-0.3-7.8,0.3-11.5V145c0-2-1.6-3.6-3.6-3.6h-0.5
		c-2.3,0-4.3,1.5-5.4,3.6c-0.9,2.5-2.3,4.5-4,6.5l-0.7,0.9l-3.6,3.6l-1.8,1.8c-1.8,1.8-2.9,4.5-3.3,7.2c-0.3,2.7-1,5.4-2.2,7.9
		l-0.3,0.9c-0.9,2.2-2.3,4.1-4.2,5.4c-1.8,1.5-3,3.6-3,5.8l-0.3,8.3c0,3.6-0.5,7.2-1.8,10.8l-0.3,1.5c-0.9,2.3,0,4.8,2.2,6l7.6,3.3
		l0.7,0.3c0.5,0,0.7,0.3,0.9,0.9c0.5,0.7,0,1.8-0.5,1.8l-1.8,0.9c-1,0.3-1.8,1.5-2.2,2.7l-0.3,1.8v0.3l-1.8,10.1
		c-0.3,1.5-0.3,3-0.3,4.7c0,1.5,0.9,2.7,2.2,3.3l4,1.8C90,244.3,92.1,245.5,93.6,246.8z"/>
	<path d="M253.8,143.2c-1.8,0.3-3.6,2.3-3.3,4.5c0.3,3,0,5.8-0.5,8.5l-0.7,3c-0.7,2.7-2.5,4.8-4.8,5.8l-1,0.5H243
		c-1.1,0.7-1.8,2.3-0.9,3.6c1,1.8,1.5,3.6,1.3,5.4l-0.5,5.8c0,2.2-0.9,4.1-1.8,6c-1,1.8-1,3.6-0.3,5.4l1.8,4c0.9,1.8,1,3.6,0.5,5.8
		c-0.5,1.8-0.9,3.6-0.7,5.4c0,1.8,1.1,3.6,2.5,4.3l0.3,0.3l0.3-0.1c1.8,1,3.6,0.5,4.3-1.1l0.5-0.9c1.3-2.5,2.9-5,4.7-7.2l3.6-5.4
		c0.5,0,0.7-0.3,0.9-0.7l4.3-5.8c1.8-1.8,4-3,6.5-3c2.3,0,4.3-1.3,5.5-3.6c0.7-2.5,1.8-4.8,4-6.8l0.9-1c1.8-1.8,3.6-2.7,5.4-3.6
		c2.3-0.3,4.5-0.7,6.7-0.7h5.4c2.2,0,4-0.9,5-2.7c1.1-1.8,2.7-3,4.5-4l1.8-0.7c2.9-1.3,6.1-2.2,9.3-2.5l3.6-0.3c2.2,0,4.5,0,6.7,1.3
		c1.8,1.3,4.2,1,6-0.3l1.3-0.7c2.7-1.8,5.8-3.3,9-3.6h0.3c3.6-0.7,6.8-0.7,10.5-0.5h1.8c3.6,0.5,6.7,1.8,9,4.5l0.5,0.7
		c1.8,1.8,4.7,3.3,7.2,3.3h3c0.9,0,1.8-0.3,2.3-1.3c0.5-0.5,1.5-1,2.3-1h1.8c2.5,0,4.8,0.7,7.2,1.5l3,1.3c2.9,0.9,6,1.8,9,2.2h2.2
		c1.5,0,2.3-0.9,2.3-2.2c0-1.8-0.3-3.6-1.3-5l-1.3-2.8c-1.5-2.3-2.5-4.8-3.6-7.2l-0.3-0.9c-0.9-1.8-0.9-3.6,0-5.4v-0.9
		c0.3-1.5-0.3-3-1.8-3.6H398c-2.9-0.9-5.4-2.5-7.2-4.8l-1.8-1.8c-1.8-1.8-2.9-4.5-3.6-7.2c-0.9-2.3-2.9-4.1-5.4-4.1h-7.6
		c-2.7-0.3-5.1-1.8-6.7-4l-0.7-0.9c-1.3-1.8-2.3-4-3-6.1c-0.9-1.8-2.9-2.8-4.7-2.3l-2.2,0.7c-3.6,1.3-7.2,1.8-10.8,1.5l-2.9-0.3
		c-3,0-6-1.3-8.3-3l-1.8-1.3c-1.5-1-2.9-1.8-4.5-2.5c-1.8-0.7-3.3-0.3-4.3,0.9l-0.9,1c-1.8,1.8-4.3,3.3-6.8,3.6l-9.7,0.5
		c-1.8,0-3.6,0.9-4.8,2.2c-1.5,1.3-3,2.2-4.8,2.5h-0.3c-1.8,0-3.6,1.3-5.4,2.5v0.3c-1.8,1.8-4.2,2.7-6.5,2.7l-0.7,0.3
		c-2.2,0-4.3,0-6.5,0.5h-2.2c-3,0.5-5.4,3-6.1,6.3l-0.7,4.1c-0.6,2.8-1.8,5.4-3.6,7.8c-1.8,2.2-4,3.6-6.7,3.6H253.8z"/>
	<path d="M159.5,173.6c2.9,2.2,4.7,5.4,5.4,9.3v3.3c0.5,3.6,2.5,7.2,5.8,9c3.3,2.2,5.8,5.4,7.2,9l0.9,2.8c1.5,4,4.7,6.3,8.3,6.6h1
		c3.3,0,6.1,1.8,8,4.7s4.7,4.8,8,5.4l5,1.5c3,0.9,6,2.5,8.3,4.8l0.3,0.3c1.8,1.5,4.7,1.3,6.3-0.7l1.3-1.5l-0.3-0.3
		c1.3-1.3,1-3.6,0-4.5c-1.6-1.4-3.1-3-4.2-4.8l-1.8-2.8c-1.2-2.2-2.9-4.3-4.7-6.1l-0.3-0.3c-1.7-1.5-3.2-3.3-4.2-5.4
		c-0.9-1.8-0.9-3.6,0-5.4l1.1-1.8c1-1.8,1.8-4.3,1.8-6.5v-0.7c0-1.8-0.7-3.6-1.8-5.4c-0.7-1.5-1.5-3.3-1.8-5v-1
		c-0.5-2.2,0-4.5,1.5-6.3c1.5-2.3,2.5-4.5,3-7.2v-0.3c0.7-1.8,0.3-4.1-0.7-6c-1-1.8-1.5-3.6-0.7-5.8l1.3-3.6c1-3.2,2.7-6.1,4.8-8.6
		l2.5-2.7l1.8-2.2l1.1-1c1.1-1,1.3-2.8,0.3-4.3c-0.9-1.8-1.5-3.6-1-5.4l0.3-2.5c0.5-3.6,1.8-7.2,4.2-10.1l0.7-0.7
		c2.7-3.6,6.1-6,10.1-7.2l4.8-1.8c2.2-0.7,3.6-3,3.6-5.4c0-2.8,0.9-5.4,2.5-7.8l0.9-0.9c1.8-3,4-6.1,5.4-9.3l1.3-2.3
		c0.3-0.5,0.5-1.3,0.5-1.8c0-3-1.8-5.8-4.7-6l-8-0.5c-4.5-0.3-9,0-13.3,0l-15.3,1.8c-2.3,0-4.2,1.8-4.3,4.3c0,2.5-1.8,4.7-4,5.4
		l-6.5,1.8l-1.8,0.5l-5.5,1.8c-4,1.3-7.2,4.1-9,8.1l-1.5,2.3c-1.8,4-4.8,7.2-8.7,9.5c-3.6,2.3-5.4,6.1-5.8,10.4v1.8
		c-0.3,3.6-1.5,7.2-3.6,9.7l-0.9,1.5c-1.5,1.8-1.8,4.1-0.9,6.1c0.9,2.2,1.5,4.5,1.3,6.8v9.5c0,2.5-1.8,4.7-3.6,5.4
		c-2.5,0.9-4.2,2.8-4.8,5.4l-0.9,3.6C155.1,167.9,156.3,171.5,159.5,173.6z"/>
	<path d="M341.9,315l-3-2.7c-2.5-2.2-4-5.4-4.3-8.6l-0.3-3.6c0-1,0-2.3-0.3-3.6l-0.3-2.7c-0.4-2.9-2.2-5.6-4.7-7.2l-1.3-0.3
		c-1.8-1-3.6-2.7-5-4.8c-1.5-1.8-2.2-4.3-2.7-6.8l-0.5-3c0-1-0.7-1.8-1.8-2.3l-2.9-0.9l-5.8-1.8c-1.8-0.3-3.6-1.8-4.8-3h-0.3
		c-0.8-1.2-2.4-1.5-3.5-0.7c-0.2,0.1-0.3,0.2-0.3,0.3L298,265c-0.3,0.5-0.7,0.7-1.3,0.5c-1,0-1.8-0.9-1.5-1.8c0.4-2.8-0.8-5.8-3-7.6
		l-2.3-1.8l-5.4-3.6c-1.5-0.5-3.6,0-4.3,1.8l-0.7,1.1c0,0.3-0.5,0.5-0.7,0.7c-0.7,0-1.8,0-1.8-0.9l-0.5-0.9c-0.5-1-1.8-1.8-2.9-2.2
		l-1-1.1h-0.3c-0.7,0-1,0.9-0.9,1.8l0.7,3.6c0.7,2.8,1.1,5.8,1.5,8.6c0.3,2.8,1.8,5.4,4,7.2h0.7c2.7,2.2,4.3,5.4,4.5,8.6v9
		c-0.3,1.8,0,3.6,1,5l0.9,0.9c1.8,2.2,2.5,4.7,2.7,7.2l0.5,9.9c0,2.3-1.5,4.3-3.6,4.7l-1.8,0.3c-1.3,0-1.8,1.5-1.8,2.7
		c0,1.5,0.5,3,1,4.5v0.3c0.5,1.8,0.7,3.6,0.5,5.4l-0.7,4.8c-0.7,3.6-1.8,6.8-3.6,10.1l-1.3,2.2c-0.8,1.6-2,2.8-3.6,3.6
		c-1.8,0.7-3,2.2-3.6,4l-1.5,6.5c-0.9,3.6-2.5,7.2-4.7,10.8h-0.3c-2.2,2.8-4.8,5.4-8.1,7.2l-2.2,1.5l-5.4,2.7
		c-1.8,0.7-2.9,2.3-3.3,4.3l-0.9,6c-0.5,3.6-1.8,6.6-4.3,9l-2.3,2.7l-2.7,2.7l-2.7,2.8c-2.2,2.5-5.4,3.6-9,3l-6.2-1l-6-0.7H208
		c-0.7,0.7-0.9,1.8-0.3,2.8c1.3,2.2,3.3,3.6,5.5,3.6l4,0.7c1.8,0,4,0.9,5.8,1.8c1.8,1.3,3.6,2.2,5.8,2.7h0.3c2.3,0.9,4.8,1,7.2,0.9
		l2.7-0.3c3-0.3,6,0,8.5,1l2.2,0.7c0.9,0.3,2.3,0,3.3-0.9c1-1,2.2-1.8,3.6-2.3l1.5-0.3c2.3-0.7,4.7-1,7.2-1h1.5c2.2,0,4.2,0.3,6,1.5
		l0.7,0.3c1.3,0.5,2.7,0,3.6-1c0.5-1.3,1.8-2.5,3-3.6l4.5-3l2.9-1.8l1.5-0.9c1.8-1.3,4.3-1.8,6.5-1.8l6.5-0.5
		c2.5-0.3,4.7-2.2,5.4-4.7c0.7-2.7,1.8-5.4,3.6-7.8c1.8-2.3,3.6-4.3,5.4-6.1c2.3-1.8,4.7-2.7,7.2-2.8h1.5c2.9-0.5,5-3.3,4.8-6.1
		v-12.1c0.3-1.8,1-4.1,2.2-6l3.6-5.4l1.5-1.8c1-0.9,1.8-2.2,3-3.6l1.8-2.3c1.1-1.8,1-4.1-0.3-5.8c-1.8-1.8-2.7-4.3-3-6.8v-0.7
		c-0.3-2.8-0.3-6,0.5-9v-0.9c0.9-2.3,2.2-4.7,3.6-6.8C343.9,319,343.7,316.4,341.9,315z"/>
	<path d="M421.7,265.7c-1.8-0.9-3.6-2.3-4.2-4.5l-0.5-1c-0.9-3.3-1.5-6.5-1.5-9.7l0.3-9V241c0-3-2.4-5.4-5.4-5.4h-0.3
		c-3.6,0-6.5-1.1-9-3.6l-1.5-1.8l-3.6-4.1l-4.7-5.4c-1.8-2.5-3.6-4.7-6-6.8c-1.8-1.8-4.5-3.6-7.2-4l-3.6-0.5
		c-1.8-0.3-4.2-1.3-6.1-2.5c-1.5-1.1-3.6-0.7-5,0.7l-2.3,2.5l-1,0.7c-1.3,0.3-2.5-0.3-3-1.8c-0.8-2.2-0.7-4.7,0.3-6.8v-1.1
		c0-1.3-1-2.2-2.2-1.8h-2.9c-3.3,0-6.5-0.3-9.5-1.8l-1.8-0.7c-1.8-0.9-3.9-1.4-6-1.5c-1.8,0-3.6,0.3-5.4,1.5l-0.7,0.5
		c-2.2,1.5-4.7,2.2-7.2,2.3h-6c-2.7,0-5.4,0.9-7.2,2.3c-2.3,1.5-4.8,2.3-7.6,2.8l-4.8,0.7c-2.2,0.5-4.5,1.5-6.5,3
		c-1.8,1.8-4.3,2.8-6.7,3.6l-0.9,0.3c-2.9,0.9-5.5,2.8-7.2,5.4l-2.2,2.2c-1.3,1.7-1.3,4.1,0,5.8c1,1.8,3.3,2.3,5.4,1.8l2.7-1.1
		c1.5-0.5,3,0,4.3,0.7c1,0.9,2.7,1.5,4.3,1.3l4.5-0.5c2.5,0,5,0,7.6,0.7c2.7,0.9,5,1.8,7.2,3.6c2.2,1.8,4.5,2.5,7.2,2.8
		c2.7,0.3,5.4,0.9,8,1.8l1.8,0.3c1.8,0.5,3.3,1.8,4.3,3.6c0.9,1.5,1.8,3.6,1.8,5.4v0.5c0,2.2,1.8,3.6,3.6,3.6h1c2.9,0,6,0.3,9,1.3
		l1.3,0.5c1.8,0.7,3.6,1.8,4.8,3.6c1.5,1.8,2.3,3.6,2.9,5.4l0.5,2.5c0.5,2.7,0.7,5.4,0.7,8.3v0.9c0,1.8,1.3,3.6,3.3,4.3
		c1.8,0.3,4,1,6,2.2l0.9,0.3c2.3,1.5,4.7,3.3,6.5,5.4l0.9,1.3c2.3,2.7,3.6,6.1,3.6,9.5v1.3c0,2.7-0.5,5.4-1.5,7.9
		c-0.7,2.2,0,4.7,2.3,5.4l1.3,0.9c2.7,1,5,3,6.8,5.4c1.8,2.7,2.5,5.8,2.5,9v5.4c-0.3,1.8-0.9,3.3-1.8,4.5c-0.9,1.3-0.9,3,0,4.3
		l1,1.8l0.3-0.3c1.8,1.8,4.5,2.5,6.7,1l3.6-2.3c1.8-1.3,3.3-3,4-5.4v-0.3l1.8-5.4l1-1.8l0.7-1.8l0.7-1.3c0.7-1.5,1.8-2.5,3.6-3
		l0.7-0.3c1.5-0.3,2.3-1.8,2.3-3.3c0-1.8,0.9-3.3,1.8-4.5l1.5-1.3l3.6-4.7v-0.3c1-1.5,1.8-3,2.2-4.8c0.3-1.8,0-3.6-0.7-5.4l-0.3-0.7
		c-0.6-1.5-1-3-1.3-4.7l-0.5-5l-0.5-5.4c0-1.8,0.7-3.6,1.8-5.4c1.2-1.5,2.2-3.2,2.9-5v-0.7l0.3-0.3
		C424.2,267.5,423.3,265.7,421.7,265.7z"/>
	<path d="M247.5,0C110.8,0,0,110.8,0,247.5S110.8,495,247.5,495S495,384.2,495,247.5S384.2,0,247.5,0z M463.8,290
		c-0.9,2.2-2.3,4.1-4.2,5.8c-1.8,1.8-3.6,2.8-4.7,4.1c-1,1-1.8,2.8-1.3,4.5l0.5,2.5c0.9,3.6,0.9,7.2,0,10.4v1.5
		c-0.7,2.7-1.8,5-2.9,7.2c-1.3,2.3-3,4.1-5.4,5.4l-2.7,1.8c-1.4,0.9-2.2,2.3-2.2,4c0,1.8-0.7,3.6-1.8,4.7l-2.7,3.6
		c-1.8,2.3-4.2,4.3-6.7,5.4c-2.5,1.8-4.7,3.6-6.3,5.4c-1.8,2.2-3.3,4.7-4,7.2c-0.7,3.3-3.3,5-6,5h-9.8c-2.5,0-4.8,1.8-6,4
		c-1.3,2.8-2.5,4.8-4.2,6.6c-1.7,1.8-3,4.1-3.6,6.5c-0.3,2.2-2.2,3.6-4,2.8c-2.3-1-4.7,0-5.8,1.8c-2.2,3.6-4.3,6.3-6.7,8.6l-1.3,1
		c-2.3,1.8-5.4,3.3-8.1,3.3c-3.3,0-4.8,1.5-5.4,3.6c-0.5,1.8-0.9,4.1-1,6.1c-0.3,2.2-1,4.1-1.8,6l-0.9,1c-1.8,2.7-3.3,5.4-5,7.8
		l-0.7,1c-2.3,3-5.4,5.4-9,6.3c-3.8,1.3-7.9,1.9-11.9,1.8h-2.5c-1.8,0-3.6,1-4.8,2.8l-1,1.8l-1,2.2l-2.3,4c-1.8,3.3-4.5,5.4-8.1,6.5
		c-3.6,0.9-7.8,1.3-11.5,1l-2.9-0.3c-2.5,0-4.8-0.7-7.2-1.8c-1.8-0.7-4.3,0-5.4,1.8c-1.8,2.5-4,4-6.3,4.7l-5.4,1.8
		c-3.6,0.9-7.6,0.9-11.3,0l-2.9-0.9c-1.8,0-3.6-0.9-5-1.8c-1.6-0.9-3.5-1.2-5.4-1l-2.3,0.3c-3.6,0.3-6.8,0-10.1-0.9l-4.8-1
		c-2.2-0.7-4.2-2.2-5.4-4.1c-1.1-2-3.1-3.4-5.4-3.6h-6.2c-3.6-0.5-6.8-1.8-9-4.5l-7.2-6.8l-2.5-2.2l-4-2.8l-2.3-1.8
		c-2.7-1.8-6-3.3-9.3-3.6l-10.8-1.8c-1,0-1.8-0.3-2.9-0.5l-4.2-0.9c-1.8-0.3-3.6-1.8-4.8-3.6c-1-1.8-3-2.5-4.8-1.8
		c-3.6,1.5-6.5,1.8-9.3,2.3h-2.5c-4.7,0.3-9-0.3-13.3-2.3c-4.3-1.8-7.2-4.5-9.9-7.9c-2.2-3-5.5-5.4-9.3-6.1l-5-1
		c-3.6-0.7-7.2-2.2-10.5-4.3c-3.6-2.5-5.4-4.8-6.8-7.8c-1.5-2.7-2.3-5.8-2.5-9v-1.5c-0.3-3.6-2.9-6.6-6.3-7.8
		c-4.2-1.3-7.2-3-9.9-5.4c-2.6-2.4-4-5.8-4-9.3l0.3-7.9c0-3-0.9-5.8-3-7.8c-2.2-2-3.5-4.7-3.6-7.8l-0.5-6.5c-0.4-4.7-1.2-9.4-2.3-14
		c-1-4.1,0.5-8.3,4-10.3l1.3-0.9c1.8-1.3,2.5-3.6,1.5-5.8L56,295c-1.5-1.6-3.4-2.8-5.4-3.6c-1.5-0.3-1.8-1.8-1.8-2.7l1.8-2.2
		c1-1.3,0.9-3.3,0-4.3c-1.4-1.4-2.2-3.1-2.3-5l-0.3-12.6c0-2.5,0.3-5,1-7.6c0.7-2.2,0-4.7-2.2-5.8l-0.3,0.4l-1.5-0.7
		c-3.3-1.8-5.8-4.5-7.6-7.9c-2.4-4.7-3.5-9.1-3.5-13.5l0.3-2.3c0-3.6,0.9-6.8,2.5-9.9l1.5-2.7c0.7-1.5,1.8-2.7,2.7-4
		c1-1.3,1.3-2.8,0.9-4.3l-0.9-2.8c-1.1-3.6-1.8-7.2-1.8-10.8l-0.5-2.2c0-4,1-7.9,3.6-10.8l1.8-2.3c1.3-1.8,3.3-2.8,5.5-3.6
		c1.8-0.5,3-2.3,3.3-4.5l0.3-6.1c0-4.8,2.3-9.3,6-12.6l4.3-3.3c0.9-0.9,1.8-1.8,2.5-3.2c0.9-1,1-2.5,0.9-3.6c-0.3-1.8,0-2.3,0.9-2.5
		c2.9,1,4.7,0.7,6-0.7l2.3-3l6.5-7.2c1.9-2.1,2.4-5,1.5-7.6l-2.2-4.7c-0.3-1,0-2.3,0.9-2.7c2.3,0,4,0.9,4.7,2.3l0.7,1.3
		c1,2.2,3.6,3.3,5.4,2.3c4-1.5,7.2-1.8,10.3-1.8h5.8c4,0,7.2-2.7,8-6.8c0.7-5,2.5-9,5-11.7c2.7-3,5.8-5.4,9.3-7.2
		c4.7-2.5,7.6-6.1,8.5-10.8c1.3-5.8,4.3-9.9,8.5-12.6l13.7-7.8l4-2.3c2.3-1.5,4.5-3.3,6.3-5.4l3.6-4.3c1.8-1.8,3.6-3,5.8-3.6
		c1.8-0.5,4.3-0.9,6.5-0.7l7.2,0.5c3.6,0,6.5,0.9,9.3,2.2l1.8,0.9c1.8,0.7,3.6,0.3,4.5-0.9l1.6-0.9l7.8-8.1c1.8-1.8,4-2.5,6.3-2.2
		c2.3,0.3,4.7,1.3,6.8,2.3c3.3,1.8,6,2.5,9,2.5h1.8c4,0,8,0.5,11.9,1.5l2.7,0.7c2.7,0.7,5.4-0.3,7.2-2.5c0.5-0.9,1.8-1,2.5-0.3
		c0.5,0.3,0.7,0.7,0.9,1.3c0.3,3.6,2.5,6.3,5.4,7.2l2.9,0.9c3,0.9,5.7,2.8,7.6,5.4c1.8,2.7,4,5.4,6.5,7.2l1.8,1.8
		c1.8,1.8,4.3,2.5,6.8,2.3h10.7c4.3,0,8.5,0.7,12.6,2.5c4,1.8,8.1,2.2,11.9,0.7c4-1.3,8.1-1.8,12.3-1.3l7.8,1.3
		c3.6,0.3,7.2,2.2,9.3,4.8l0.9,0.9c1.8,1.8,3.6,4.1,5.4,6.6c1,2.3,3.6,3.6,6.1,3.6h11.2c2.7,0,5.4,0.5,7.6,1.8
		c2.3,1.8,4.3,3.6,6.1,5.4l1.8,2.3c2.2,2.5,3.3,6,3,9.5c0,2.8,2.2,5.4,5,5.4l3.6,0.3c2.5,0,4.7,1.8,6,4.1l1.8,3.6l4.7,10.4
		c0.7,1.8,0.9,3.6,0.7,5c0,1.8,0.5,3.3,1.8,4l1.8,1.3c2.3,1.8,3.6,4.5,3.3,7.6l-1.3,8.5l-0.3,3.6c-0.3,1.8,0.5,4.1,2.2,5.4
		c2.7,1.8,4,4.1,4.2,6.8v3.6c0,1.8-0.3,4-1.8,5.4c-1,1.5-1.8,3.3-1.8,5.4l0.5,4.1c0,2.8,1.8,5.4,3.6,7.2c2.5,1.8,4,4.7,4.3,7.6
		c0.7,4.5,0.9,8.1,0.9,11.7v4.1c0,1.5,0,2.8,0.5,4.3c0.3,1.3,1.3,2.5,2.3,3.3l3.6,2.7c3.6,2.3,6.1,5.4,7.6,9.5
		c1.8,4,2.3,8.1,2.3,12.3v1.5c0,3.3-0.3,6.6-1.5,9.7c-1,2.9-0.7,6.1,0.5,9c1.5,2.5,2.3,5.4,2.7,8.5c0.7,3.6,0.3,7.2-0.9,10.1
		L463.8,290z"/>
</g>
    
        <a xlink:href="https://www.codewars.com/users/cait0" target="_blank"><circle fill="none" cx="50%" cy="50%" r="50%" pointer-events="visible"></circle></a>
    
</svg>
