<?xml version="1.0" encoding="utf-8"?>
<!-- Generator: Adobe Illustrator 23.0.3, SVG Export Plug-In . SVG Version: 6.00 Build 0)  -->
<svg version="1.1" id="Layer_1" xmlns="http://www.w3.org/2000/svg" xmlns:xlink="http://www.w3.org/1999/xlink" x="0px" y="0px"
	 viewBox="0 0 606.4 606.4" style="enable-background:new 0 0 606.4 606.4;" xml:space="preserve">
<path d="M303.2,0C135.8,0,0,135.8,0,303.2s135.8,303.2,303.2,303.2s303.2-135.8,303.2-303.2S470.7,0,303.2,0z M209.7,218.2
	c20.7-33.1,24.2-39.1,30.3-51.8c8.1-16.9,10.8-26.9,10.9-41.1c0.2-13.5-1.9-21.6-8.1-32.1c-4.4-7.5-14.4-18.7-18.4-20.8
	c-6.6-3.4-8-8-3.3-11.1c7.4-4.9,27.7-1.8,46.2,7c21,10,36.6,24.3,46.7,43.1c7.8,14.5,10.9,25.6,16.2,57.2
	c5.9,35.2,11.7,46.3,23.4,45c6.2-0.7,10.1-3.1,12.7-7.7c4.2-7.4,2.4-17.6-6.1-34.4c-6.9-13.7-6.5-17.9,1.6-15.8
	c4.2,1.1,17.8,12.2,27.2,22.2c23.6,25,35.3,47.8,40.9,79.4c3,16.6,3.2,44.1,0.5,58.4c-3.4,18.1-10.2,35.2-20,49.9
	c-10.9,16.3-33.5,36.9-50,45.5c-7.4,3.9-10,4.1-13.7,1.2c-4.5-3.6-3.6-6,6.4-16.7c15.1-16,22.7-27.4,27.2-40.2
	c6.9-19.9,3.5-47.6-8.1-65.2c-4.8-7.3-11.8-13.8-14.9-13.8c-1.7,0-1.4,2.3,1.8,14c1.1,4.1,2,9.1,2,11.2c0,10.8-15.2,18.5-28.5,14.7
	c-10.9-3.2-15.7-13-14.2-29.2c0.4-5,0.8-14.1,0.9-20.3c0.1-10.8,0-11.3-3.4-18.1c-6.7-13.1-22.1-26.7-30.4-26.7
	c-3.6,0-3.9,0.2-3.9,2.8c0,1.8,1,3.8,2.6,5.3c8.6,8,10.2,24.5,3.8,39c-3.9,9-8.4,14.1-23.6,26.9c-20,17-26.4,25-30.4,38.1
	c-1.8,6.1-2,8.5-1.5,19.6c0.9,18.7,4.7,31,13.6,44.1c6.8,10,14.8,16.4,25.7,20.5c5.2,1.9,5.8,2.5,5.8,5.1c0,3-2.3,5-5.7,4.9
	c-1,0-5.9-1.5-10.9-3.3l0,0c-33.6-12.2-61.5-36-75.8-64.6c-8-15.9-12.6-35.1-12.6-52.4C172.8,284.8,181.9,262.6,209.7,218.2z
	 M465.3,515.5l-3.7,2.6L304,518.3c-86.7,0.1-158.7-0.2-160-0.7v0c-9.6-3.6-15.2-15.5-12.9-27.4c1.4-7.4,7.4-15,13.3-16.8
	c5.9-1.8,310.6-1.8,316.5,0c6,1.9,12,9.5,13.3,17.1C475.9,500.3,472.3,510.5,465.3,515.5z"/>
</svg>
