<?xml version="1.0" encoding="utf-8"?>
<!-- Generator: Adobe Illustrator 23.0.3, SVG Export Plug-In . SVG Version: 6.00 Build 0)  -->
<svg version="1.1" id="Layer_1" xmlns="http://www.w3.org/2000/svg" xmlns:xlink="http://www.w3.org/1999/xlink" x="0px" y="0px" viewBox="0 0 200 200" style="enable-background:new 0 0 200 200;" xml:space="preserve">

<g>
	<path class="st0" d="M100,0C44.8,0,0,45.9,0,102.5c0,45.3,28.7,83.7,68.4,97.3c5,0.9,6.8-2.2,6.8-4.9c0-2.4-0.1-10.5-0.1-19.1
		c-27.8,6.2-33.7-12.1-33.7-12.1c-4.5-11.9-11.1-15-11.1-15c-9.1-6.4,0.7-6.2,0.7-6.2c10,0.7,15.3,10.6,15.3,10.6
		c8.9,15.7,23.4,11.1,29.1,8.5c0.9-6.6,3.5-11.2,6.3-13.7c-22.2-2.6-45.6-11.4-45.6-50.7c0-11.2,3.9-20.3,10.3-27.5
		c-1-2.6-4.5-13,1-27.1c0,0,8.4-2.8,27.5,10.5c8-2.3,16.5-3.4,25-3.5c8.5,0,17.1,1.2,25.1,3.5c19.1-13.3,27.5-10.5,27.5-10.5
		c5.4,14.1,2,24.6,1,27.1c6.4,7.2,10.3,16.3,10.3,27.5c0,39.4-23.4,48.1-45.7,50.6c3.6,3.2,6.8,9.4,6.8,19c0,13.7-0.1,24.8-0.1,28.1
		c0,2.7,1.8,5.9,6.9,4.9c39.7-13.6,68.3-52,68.3-97.3C200,45.9,155.2,0,100,0z"/>
	<path class="st1" d="M37.9,147.2c-0.2,0.5-1,0.7-1.7,0.3c-0.7-0.3-1.1-1-0.9-1.5c0.2-0.5,1-0.7,1.7-0.3
		C37.7,146,38.1,146.7,37.9,147.2L37.9,147.2z M36.6,146.3"/>
	<path class="st1" d="M41.9,151.8c-0.5,0.5-1.4,0.2-2-0.5c-0.7-0.7-0.8-1.7-0.3-2.1c0.5-0.5,1.4-0.2,2.1,0.5
		C42.3,150.4,42.4,151.4,41.9,151.8L41.9,151.8z M41,150.8"/>
	<path class="st1" d="M45.9,157.7c-0.6,0.4-1.6,0-2.2-0.9c-0.6-0.9-0.6-2,0-2.4c0.6-0.4,1.6,0,2.2,0.9
		C46.5,156.2,46.5,157.3,45.9,157.7L45.9,157.7z M45.9,157.7"/>
	<path class="st1" d="M51.3,163.5c-0.5,0.6-1.7,0.5-2.6-0.4c-0.9-0.8-1.1-2-0.6-2.6c0.6-0.6,1.7-0.4,2.6,0.4
		C51.6,161.7,51.9,162.8,51.3,163.5L51.3,163.5z M51.3,163.5"/>
	<path class="st1" d="M58.7,166.8c-0.2,0.8-1.4,1.2-2.5,0.8c-1.1-0.4-1.9-1.3-1.6-2.1c0.2-0.8,1.4-1.2,2.5-0.8
		C58.2,165,59,166,58.7,166.8L58.7,166.8z M58.7,166.8"/>
	<path class="st1" d="M66.9,167.4c0,0.8-0.9,1.5-2.1,1.6c-1.2,0-2.2-0.7-2.2-1.5c0-0.9,0.9-1.5,2.1-1.6
		C65.9,165.9,66.9,166.5,66.9,167.4L66.9,167.4z M66.9,167.4"/>
	<path class="st1" d="M74.5,166.1c0.1,0.8-0.7,1.7-1.9,1.9c-1.2,0.2-2.2-0.3-2.4-1.1c-0.1-0.8,0.7-1.7,1.9-1.9
		C73.3,164.7,74.4,165.2,74.5,166.1L74.5,166.1z M74.5,166.1"/>
</g>
    
    <a xlink:href="https://github.com/cait0/cait0.github.io" target="_blank"><circle fill="none" cx="50%" cy="50%" r="52%" pointer-events="visible"></circle></a>
    
</svg>
