<?xml version="1.0" encoding="utf-8"?>
<!-- Generator: Adobe Illustrator 23.0.3, SVG Export Plug-In . SVG Version: 6.00 Build 0)  -->
<svg version="1.1" xmlns="http://www.w3.org/2000/svg" xmlns:xlink="http://www.w3.org/1999/xlink" x="0px" y="0px" viewBox="-1 -1 93 93" style="enable-background:new 0 0 91 91;" xml:space="preserve">
    
    <defs>
        <style type="text/css">
            
            .bottom {
                fill: none;
                fill-opacity: 1;
            }
            
            .shadow {
                fill: none;
                fill-opacity: 1;
            }
            
            .outline {
                fill: none;
                stroke: black;
                stroke-width: 2;
            }
            
        </style>
    </defs>
    
    <path class="bottom" d="M45.5,0.5c-24.9,0-45,20.1-45,45c0,24.9,20.1,45,45,45c24.9,0,45-20.1,45-45C90.5,20.6,70.4,0.5,45.5,0.5z M57.3,69.4c2.1,2.6,1.7,6.3-0.8,8.4c-1.1,0.9-2.5,1.4-3.8,1.4c-1.7,0-3.4-0.7-4.6-2.2L22.5,46l25.5-31c2.1-2.6,5.9-2.9,8.4-0.8 c2.6,2.1,2.9,5.9,0.8,8.4L38.1,46L57.3,69.4z"/>
    
    <g class="shadow"><path d="M43.1,49l19.3-23.4c2.1-2.6,1.7-6.3-0.8-8.4c-0.1-0.1-0.3-0.2-0.4-0.3l0.1,0l-4.6-3.4l0,0.7l1.7,2.3c0.8,2,0.6,4.3-0.9,6.1 L38.1,46l19.3,23.4c2.1,2.6,1.7,6.3-0.8,8.4c-1.1,0.9-2.5,1.4-3.8,1.4l-2.6-0.8L49.8,79l5.3,2.6l0,0c0.8,0.4,1.7,0.6,2.6,0.6 c1.3,0,2.7-0.4,3.8-1.4c2.6-2.1,2.9-5.9,0.8-8.4L43.1,49z"/><path d="M5.5,48.5c0-24.9,20.1-45,45-45c7.4,0,14.4,1.8,20.6,5c-7.3-5-16.1-8-25.6-8c-24.9,0-45,20.1-45,45 c0,17.4,9.9,32.5,24.4,40C13.2,77.4,5.5,63.8,5.5,48.5z"/></g>

    <path class="outline" d="M45.5,0.5c-24.9,0-45,20.1-45,45c0,24.9,20.1,45,45,45c24.9,0,45-20.1,45-45
	C90.5,20.6,70.4,0.5,45.5,0.5z M57.3,69.4c2.1,2.6,1.7,6.3-0.8,8.4c-1.1,0.9-2.5,1.4-3.8,1.4c-1.7,0-3.4-0.7-4.6-2.2L22.5,46
	l25.5-31c2.1-2.6,5.9-2.9,8.4-0.8c2.6,2.1,2.9,5.9,0.8,8.4L38.1,46L57.3,69.4z"/>
    
</svg>