<?xml version="1.0" encoding="utf-8"?>
<!-- Generator: Adobe Illustrator 23.0.3, SVG Export Plug-In . SVG Version: 6.00 Build 0)  -->
<svg version="1.1" id="Layer_1" xmlns="http://www.w3.org/2000/svg" xmlns:xlink="http://www.w3.org/1999/xlink" x="0px" y="0px"
	 viewBox="0 0 266 266" style="enable-background:new 0 0 266 266;" xml:space="preserve">
<style type="text/css">
	.st0{fill:#FFFFFF;}
</style>
<g>
	<circle cx="133" cy="133" r="133"/>
</g>
<g id="in">
	<rect x="51.5" y="101.8" class="st0" width="34.9" height="112.2"/>
	<path class="st0" d="M68.9,86.5c-11.2,0-20.2-9.1-20.2-20.2c0-11.2,9-20.2,20.2-20.2c11.2,0,20.2,9.1,20.2,20.2
		C89.1,77.4,80.1,86.5,68.9,86.5z"/>
	<path class="st0" d="M217,214h-34.9v-54.6c0-13-0.2-29.8-18.1-29.8c-18.1,0-20.9,14.2-20.9,28.8V214h-34.8V101.8h33.4v15.3h0.5
		c4.7-8.8,16-18.1,33-18.1c35.3,0,41.8,23.2,41.8,53.5V214z"/>
</g>
</svg>
