<?xml version="1.0" encoding="utf-8"?>
<!-- Generator: Adobe Illustrator 23.0.3, SVG Export Plug-In . SVG Version: 6.00 Build 0)  -->
<svg version="1.1" id="Layer_1" xmlns="http://www.w3.org/2000/svg" xmlns:xlink="http://www.w3.org/1999/xlink" x="0px" y="0px"
	 viewBox="0 0 266 266" style="enable-background:new 0 0 266 266;" xml:space="preserve">
<path d="M133,0C59.5,0,0,59.5,0,133s59.5,133,133,133s133-59.5,133-133S206.5,0,133,0z M86.4,214H51.5V101.8h34.9V214z M68.9,86.5
	c-11.2,0-20.2-9.1-20.2-20.2c0-11.2,9-20.2,20.2-20.2c11.2,0,20.2,9.1,20.2,20.2C89.1,77.4,80.1,86.5,68.9,86.5z M217,214h-34.9
	v-54.6c0-13-0.2-29.8-18.1-29.8c-18.1,0-20.9,14.2-20.9,28.8V214h-34.8V101.8h33.4v15.3h0.5c4.7-8.8,16-18.1,33-18.1
	c35.3,0,41.8,23.2,41.8,53.5V214z"/>
    
    <a xlink:href="https://www.linkedin.com/in/jonasvanbuel/" target="_blank"><circle fill="none" cx="50%" cy="50%" r="50%" pointer-events="visible"></circle></a>
    
</svg>
