<?xml version="1.0" encoding="utf-8"?>
<!-- Generator: Adobe Illustrator 23.0.3, SVG Export Plug-In . SVG Version: 6.00 Build 0)  -->
<svg version="1.1" id="Right_x5F_Button" xmlns="http://www.w3.org/2000/svg" xmlns:xlink="http://www.w3.org/1999/xlink" x="0px"
	 y="0px" viewBox="0 0 91 91" style="enable-background:new 0 0 91 91;" xml:space="preserve">
<style type="text/css">
	.st0{fill:none;stroke:#000000;stroke-miterlimit:10;}
</style>
<path id="Bottom" d="M45.5,90.5c24.9,0,45-20.1,45-45c0-24.9-20.1-45-45-45c-24.9,0-45,20.1-45,45C0.5,70.4,20.6,90.5,45.5,90.5z
	 M33.7,21.6c-2.1-2.6-1.7-6.3,0.8-8.4c1.1-0.9,2.5-1.4,3.8-1.4c1.7,0,3.4,0.7,4.6,2.2l25.5,31L42.9,76c-2.1,2.6-5.9,2.9-8.4,0.8
	c-2.6-2.1-2.9-5.9-0.8-8.4L52.9,45L33.7,21.6z"/>
<g id="Shadow">
	<path d="M47.9,17c-0.4-0.4-0.8-0.8-1.2-1.1l0,0l-4.7-3.4l-0.3,0.4l0.6,0.5l1.6,1.9L68.5,45L42.9,76c-1.1,1.3-2.6,2-4.1,2.2l-1.5,0
		l-1.7-0.6L35.4,78l5.4,2.6l0,0c2.4,1.1,5.4,0.6,7.2-1.6l25.5-31L47.9,17z"/>
	<path d="M5.5,48.5c0-24.9,20.1-45,45-45c7.4,0,14.4,1.8,20.6,5c-7.3-5-16.1-8-25.6-8c-24.9,0-45,20.1-45,45
		c0,17.4,9.9,32.5,24.4,40C13.2,77.4,5.5,63.8,5.5,48.5z"/>
</g>
<path id="Outline" class="st0" d="M45.5,90.5c24.9,0,45-20.1,45-45c0-24.9-20.1-45-45-45c-24.9,0-45,20.1-45,45
	C0.5,70.4,20.6,90.5,45.5,90.5z M33.7,21.6c-2.1-2.6-1.7-6.3,0.8-8.4c1.1-0.9,2.5-1.4,3.8-1.4c1.7,0,3.4,0.7,4.6,2.2l25.5,31
	L42.9,76c-2.1,2.6-5.9,2.9-8.4,0.8c-2.6-2.1-2.9-5.9-0.8-8.4L52.9,45L33.7,21.6z"/>
</svg>
